<svg width="32769" height="12520" viewBox="0 0 32769 12520" fill="none" xmlns="http://www.w3.org/2000/svg">
<path d="M18648.8 10746.2H17604.9L15940.4 3420.14V10746.2H14948.7V237.054H16279.7L17657.1 6257.39V237.054H18648.8V10746.2Z" fill="white" fill-opacity="0.74"/>
<path d="M27063.8 4866.8L4670.7 9589.89V3407.28L3622.32 7397.48H2635.84L1587.46 3407.28V9589.89H225.728V262.732H1893.08L3169.7 4866.8L4442.45 262.732L32768 5273.19L27063.8 4866.8Z" fill="#310080"/>
<path d="M25021 5702.55C25021 6085.03 24985.1 6420.99 24913.3 6710.44C24841.6 6999.89 24745.1 7239.37 24623.8 7428.89C24480.3 7656.31 24322.3 7818.26 24149.8 7914.74C23979 8011.22 23761.2 8059.46 23496.4 8059.46H21969.3V363.305H23317C23597.2 363.305 23809 385.702 23952.5 430.498C24097.7 471.847 24233.5 561.437 24359.9 699.269C24496.5 847.438 24598.2 1045.57 24664.8 1293.67C24733.1 1541.76 24767.3 1827.76 24767.3 2151.67C24767.3 2527.26 24720.3 2861.5 24626.4 3154.39C24534.1 3447.28 24406 3662.64 24242 3800.48V3841.82C24477.8 3941.75 24666.5 4146.78 24808.3 4456.9C24950.1 4763.57 25021 5178.79 25021 5702.55ZM23793.6 2539.32C23793.6 2415.27 23777.4 2287.78 23744.9 2156.84C23714.2 2025.9 23665.5 1931.14 23598.9 1872.56C23535.7 1817.43 23460.5 1788.14 23373.4 1784.69C23288 1777.8 23159.9 1774.35 22989.1 1774.35H22922.5V3402.49H23042.9C23206.9 3402.49 23321.3 3399.04 23386.2 3392.15C23452.8 3385.26 23521.2 3349.08 23591.2 3283.61C23668.1 3211.25 23721 3111.32 23750.1 2983.82C23779.1 2856.33 23793.6 2708.16 23793.6 2539.32ZM24034.5 5666.37C24034.5 5428.61 24010.6 5242.54 23962.7 5108.15C23914.9 4973.76 23843.2 4872.11 23747.5 4803.2C23689.4 4758.4 23609.1 4734.28 23506.7 4730.84C23405.9 4723.95 23270.1 4720.5 23099.3 4720.5H22922.5V6648.42H22973.7C23223.1 6648.42 23395.6 6644.97 23491.3 6638.08C23586.9 6631.19 23684.3 6584.67 23783.4 6498.52C23870.5 6422.72 23933.7 6312.45 23973 6167.73C24014 6019.56 24034.5 5852.44 24034.5 5666.37Z" fill="#FF0004" fill-opacity="0.81"/>
<path d="M19137 8704.05V1007.89H21717.2V2475.8H20090.1V3824.82H21589.1V5292.73H20090.1V7236.15H21717.2V8704.05H19137Z" fill="#D4C4C4"/>
<path d="M13304.4 10746.2H12260.5L10596 3420.14V10746.2H9604.33V237.054H10935.3L12312.7 6257.39V237.054H13304.4V10746.2Z" fill="white" fill-opacity="0.8"/>
<path d="M18648.8 11311.4H17604.9L15940.4 3985.42V11311.4H14948.7V802.338H16279.7L17657.1 6822.67V802.338H18648.8V11311.4Z" fill="white"/>
<path d="M27063.8 5432.09L4670.7 10155.2V3972.56L3622.32 7962.76H2635.84L1587.46 3972.56V10155.2H225.728V828.015H1893.08L3169.7 5432.09L4442.45 828.015L32768 5838.47L27063.8 5432.09Z" fill="#4609A8" fill-opacity="0.66"/>
<path d="M25243.1 5980.29C25243.1 6362.77 25207.3 6698.74 25135.5 6988.18C25063.8 7277.63 24967.3 7517.11 24846 7706.63C24702.5 7934.05 24544.5 8096 24372 8192.48C24201.2 8288.96 23983.4 8337.21 23718.6 8337.21H22191.5V641.046H23539.2C23819.4 641.046 24031.2 663.444 24174.7 708.239C24319.9 749.588 24455.7 839.179 24582.1 977.01C24718.7 1125.18 24820.4 1323.31 24887 1571.41C24955.3 1819.5 24989.5 2105.5 24989.5 2429.41C24989.5 2805 24942.5 3139.24 24848.6 3432.13C24756.3 3725.02 24628.2 3940.38 24464.2 4078.22V4119.57C24699.9 4219.49 24888.7 4424.52 25030.5 4734.64C25172.3 5041.31 25243.1 5456.53 25243.1 5980.29ZM24015.8 2817.06C24015.8 2693.01 23999.6 2565.52 23967.1 2434.58C23936.4 2303.64 23887.7 2208.88 23821.1 2150.3C23757.9 2095.17 23682.7 2065.88 23595.6 2062.43C23510.2 2055.54 23382.1 2052.09 23211.3 2052.09H23144.6V3680.23H23265.1C23429.1 3680.23 23543.5 3676.78 23608.4 3669.89C23675 3663 23743.4 3626.82 23813.4 3561.35C23890.3 3488.99 23943.2 3389.06 23972.3 3261.57C24001.3 3134.07 24015.8 2985.9 24015.8 2817.06ZM24256.7 5944.11C24256.7 5706.35 24232.8 5520.28 24184.9 5385.89C24137.1 5251.51 24065.4 5149.86 23969.7 5080.94C23911.6 5036.14 23831.3 5012.02 23728.8 5008.58C23628.1 5001.69 23492.3 4998.24 23321.4 4998.24H23144.6V6926.16H23195.9C23445.3 6926.16 23617.8 6922.71 23713.5 6915.82C23809.1 6908.93 23906.5 6862.41 24005.6 6776.27C24092.7 6700.46 24155.9 6590.19 24195.2 6445.47C24236.2 6297.3 24256.7 6130.18 24256.7 5944.11Z" fill="#FF0004"/>
<path d="M19137 9269.34V1573.18H21717.2V3041.08H20090.1V4390.11H21589.1V5858.01H20090.1V7801.43H21717.2V9269.34H19137Z" fill="#D4C4C4"/>
<path d="M13304.4 11311.4H12260.5L10596 3985.42V11311.4H9604.33V802.338H10935.3L12312.7 6822.67V802.338H13304.4V11311.4Z" fill="white" fill-opacity="0.8"/>
<path fill-rule="evenodd" clip-rule="evenodd" d="M7548.71 9178.8L6829.26 1470.41L8108.43 1351.02L8827.88 9059.42L7548.71 9178.8Z" fill="#FF0095"/>
<path d="M18648.8 12519.1H17604.9L15940.4 5193.09V12519.1H14948.7V2010.01H16279.7L17657.1 8030.34V2010.01H18648.8V12519.1Z" fill="white"/>
<path d="M27063.8 6639.75L4670.69 11362.8V5180.23L3622.31 9170.43H2635.83L1587.45 5180.23V11362.8H225.721V2035.68H1893.07L3169.69 6639.75L4442.45 2035.68L32768 7046.14L27063.8 6639.75Z" fill="#310080"/>
<path d="M25261 7355.29C25261 7737.77 25225.1 8073.73 25153.4 8363.18C25081.6 8652.62 24985.1 8892.11 24863.8 9081.63C24720.4 9309.05 24562.4 9471 24389.8 9567.48C24219 9663.96 24001.2 9712.2 23736.5 9712.2H22209.3V2016.04H23557.1C23837.2 2016.04 24049 2038.44 24192.5 2083.24C24337.7 2124.59 24473.5 2214.18 24599.9 2352.01C24736.6 2500.18 24838.2 2698.31 24904.8 2946.41C24973.2 3194.5 25007.3 3480.5 25007.3 3804.41C25007.3 4180 24960.4 4514.24 24866.4 4807.13C24774.2 5100.02 24646.1 5315.38 24482.1 5453.21V5494.56C24717.8 5594.49 24906.6 5799.52 25048.3 6109.64C25190.1 6416.31 25261 6831.53 25261 7355.29ZM24033.7 4192.06C24033.7 4068.01 24017.4 3940.51 23985 3809.57C23954.2 3678.63 23905.6 3583.88 23838.9 3525.3C23775.7 3470.16 23700.6 3440.88 23613.5 3437.43C23528.1 3430.54 23399.9 3427.09 23229.1 3427.09H23162.5V5055.23H23282.9C23446.9 5055.23 23561.4 5051.78 23626.3 5044.89C23692.9 5038 23761.2 5001.82 23831.3 4936.35C23908.1 4863.98 23961.1 4764.06 23990.1 4636.56C24019.2 4509.07 24033.7 4360.9 24033.7 4192.06ZM24274.5 7319.11C24274.5 7081.35 24250.6 6895.27 24202.8 6760.89C24155 6626.5 24083.2 6524.85 23987.6 6455.94C23929.5 6411.14 23849.2 6387.02 23746.7 6383.58C23645.9 6376.68 23510.1 6373.24 23339.3 6373.24H23162.5V8301.15H23213.7C23463.1 8301.15 23635.7 8297.71 23731.3 8290.82C23827 8283.93 23924.4 8237.41 24023.4 8151.26C24110.5 8075.46 24173.7 7965.19 24213 7820.47C24254 7672.3 24274.5 7505.18 24274.5 7319.11Z" fill="white" fill-opacity="0.87"/>
<path d="M19137 10477V2780.84H21717.2V4248.75H20090.1V5597.77H21589.1V7065.68H20090.1V9009.1H21717.2V10477H19137Z" fill="#D4C4C4"/>
<path d="M13304.4 12519.1H12260.5L10596 5193.09V12519.1H9604.32V2010.01H10935.3L12312.7 8030.34V2010.01H13304.4V12519.1Z" fill="white" fill-opacity="0.8"/>
<path fill-rule="evenodd" clip-rule="evenodd" d="M7548.79 10386.4L6829.34 2678.04L8108.51 2558.65L8827.96 10267L7548.79 10386.4Z" fill="white"/>
<path d="M30136.1 5514.63C30136.1 7097.99 29918.9 8343.63 29484.5 9251.54C29050 10159.5 28454.7 10613.4 27698.3 10613.4C26939.8 10613.4 26344.4 10155.1 25912.2 9238.38C25480 8317.31 25263.9 7076.06 25263.9 5514.63C25263.9 3940.04 25480 2696.6 25912.2 1784.3C26344.4 867.615 26939.8 409.273 27698.3 409.273C28454.7 409.273 30041.6 106.962 30476.1 1019.26C30910.5 1927.17 30136.1 3931.27 30136.1 5514.63ZM28832.8 5508.05C28832.8 4924.71 28801.3 4429.08 28738.3 4021.18C28677.5 3608.89 28595.4 3271.17 28491.8 3008.01C28383.8 2740.46 28261.1 2549.66 28123.8 2435.63C27988.7 2317.2 27848 2257.99 27701.7 2257.99C27546.4 2257.99 27405.7 2312.82 27279.7 2422.47C27153.6 2527.73 27032.1 2718.53 26915 2994.85C26811.5 3249.24 26727 3586.96 26661.8 4008.02C26598.7 4429.08 26567.2 4931.29 26567.2 5514.63C26567.2 6115.52 26597.6 6615.53 26658.4 7014.66C26719.2 7409.4 26802.5 7740.55 26908.2 8008.1C27016.3 8280.03 27139 8475.21 27276.3 8593.63C27413.6 8707.67 27555.4 8764.69 27701.7 8764.69C27850.3 8764.69 27994.3 8703.28 28133.9 8580.47C28273.5 8453.28 28393.9 8258.1 28495.2 7994.94C28603.2 7709.84 28686.5 7378.7 28745 7001.5C28803.6 6619.91 28832.8 6122.1 28832.8 5508.05Z" fill="white" fill-opacity="0.94"/>
<path d="M18648.8 11953.8H17604.9L15940.4 4627.77V11953.8H14948.7V1444.68H16279.7L17657.1 7465.02V1444.68H18648.8V11953.8Z" fill="white"/>
<path d="M27063.8 6074.44L4670.69 10797.5V4614.91L3622.31 8605.11H2635.83L1587.45 4614.91V10797.5H225.721V1470.37H1893.07L3169.69 6074.44L4442.45 1470.37L32768 6480.82L27063.8 6074.44Z" fill="#1B1425" fill-opacity="0.76"/>
<path d="M25246.3 7220.72C25246.3 7603.2 25210.4 7939.17 25138.7 8228.61C25067 8518.06 24970.4 8757.54 24849.2 8947.06C24705.7 9174.48 24547.7 9336.43 24375.1 9432.91C24204.3 9529.4 23986.5 9577.64 23721.8 9577.64H22194.7V1881.48H23542.4C23822.5 1881.48 24034.4 1903.87 24177.9 1948.67C24323 1990.02 24458.8 2079.61 24585.3 2217.44C24721.9 2365.61 24823.5 2563.74 24890.2 2811.84C24958.5 3059.94 24992.7 3345.94 24992.7 3669.84C24992.7 4045.43 24945.7 4379.67 24851.7 4672.56C24759.5 4965.45 24631.4 5180.82 24467.4 5318.65V5360C24703.1 5459.92 24891.9 5664.95 25033.6 5975.07C25175.4 6281.74 25246.3 6696.96 25246.3 7220.72ZM24019 4057.49C24019 3933.44 24002.8 3805.95 23970.3 3675.01C23939.6 3544.07 23890.9 3449.31 23824.3 3390.73C23761.1 3335.6 23685.9 3306.31 23598.8 3302.86C23513.4 3295.97 23385.3 3292.53 23214.4 3292.53H23147.8V4920.66H23268.2C23432.2 4920.66 23546.7 4917.21 23611.6 4910.32C23678.2 4903.43 23746.5 4867.25 23816.6 4801.78C23893.4 4729.42 23946.4 4629.49 23975.4 4502C24004.5 4374.5 24019 4226.33 24019 4057.49ZM24259.8 7184.54C24259.8 6946.78 24235.9 6760.71 24188.1 6626.32C24140.3 6491.94 24068.5 6390.29 23972.9 6321.37C23914.8 6276.58 23834.5 6252.45 23732 6249.01C23631.2 6242.12 23495.4 6238.67 23324.6 6238.67H23147.8V8166.59H23199.1C23448.5 8166.59 23621 8163.14 23716.6 8156.25C23812.3 8149.36 23909.7 8102.84 24008.7 8016.7C24095.9 7940.89 24159.1 7830.62 24198.3 7685.9C24239.3 7537.73 24259.8 7370.61 24259.8 7184.54Z" fill="#44FF06"/>
<path d="M19137 9911.69V2215.53H21717.2V3683.43H20090.1V5032.46H21589.1V6500.36H20090.1V8443.78H21717.2V9911.69H19137Z" fill="#310080"/>
<path d="M13304.4 11953.8H12260.5L10596 4627.77V11953.8H9604.32V1444.68H10935.3L12312.7 7465.02V1444.68H13304.4V11953.8Z" fill="white" fill-opacity="0.8"/>
<path fill-rule="evenodd" clip-rule="evenodd" d="M7548.7 9821.15L6829.25 2112.76L8108.43 1993.37L8827.88 9701.77L7548.7 9821.15Z" fill="white"/>
<path d="M18423 11717.6H17379.2L15714.7 4391.54V11717.6H14723V1208.46H16054L17431.3 7228.79V1208.46H18423V11717.6Z" fill="#8DF28F" fill-opacity="0.36"/>
<path d="M26838.1 5838.21L4444.97 10561.3V4378.69L3396.59 8368.88H2410.11L1361.73 4378.69V10561.3H0V1234.14H1667.35L2943.97 5838.21L4216.73 1234.14L32542.3 6244.59L26838.1 5838.21Z" fill="#310080"/>
<path d="M25035.3 6553.74C25035.3 6936.22 24999.4 7272.19 24927.7 7561.63C24855.9 7851.08 24759.4 8090.56 24638.1 8280.08C24494.6 8507.5 24336.6 8669.45 24164.1 8765.93C23993.3 8862.42 23775.5 8910.66 23510.7 8910.66H21983.6V1214.5H23331.4C23611.5 1214.5 23823.3 1236.89 23966.8 1281.69C24112 1323.04 24247.8 1412.63 24374.2 1550.46C24510.9 1698.63 24612.5 1896.76 24679.1 2144.86C24747.5 2392.96 24781.6 2678.96 24781.6 3002.86C24781.6 3378.45 24734.6 3712.69 24640.7 4005.58C24548.4 4298.47 24420.3 4513.84 24256.4 4651.67V4693.02C24492.1 4792.94 24680.8 4997.97 24822.6 5308.09C24964.4 5614.76 25035.3 6029.98 25035.3 6553.74ZM23808 3390.51C23808 3266.46 23791.7 3138.97 23759.3 3008.03C23728.5 2877.09 23679.8 2782.33 23613.2 2723.75C23550 2668.62 23474.9 2639.33 23387.7 2635.88C23302.3 2628.99 23174.2 2625.55 23003.4 2625.55H22936.8V4253.68H23057.2C23221.2 4253.68 23335.6 4250.23 23400.6 4243.34C23467.2 4236.45 23535.5 4200.27 23605.5 4134.8C23682.4 4062.44 23735.4 3962.51 23764.4 3835.02C23793.4 3707.52 23808 3559.35 23808 3390.51ZM24048.8 6517.56C24048.8 6279.8 24024.9 6093.73 23977.1 5959.34C23929.2 5824.96 23857.5 5723.31 23761.8 5654.39C23703.8 5609.6 23623.5 5585.47 23521 5582.03C23420.2 5575.14 23284.4 5571.69 23113.6 5571.69H22936.8V7499.61H22988C23237.4 7499.61 23409.9 7496.16 23505.6 7489.27C23601.3 7482.38 23698.6 7435.86 23797.7 7349.72C23884.8 7273.91 23948 7163.64 23987.3 7018.92C24028.3 6870.75 24048.8 6703.63 24048.8 6517.56Z" fill="white" fill-opacity="0.87"/>
<path d="M18911.3 9675.46V1979.3H21491.5V3447.2H19864.4V4796.23H21363.3V6264.13H19864.4V8207.55H21491.5V9675.46H18911.3Z" fill="#D4C4C4"/>
<path d="M13078.6 11717.6H12034.7L10370.3 4391.54V11717.6H9378.6V1208.46H10709.6L12086.9 7228.79V1208.46H13078.6V11717.6Z" fill="#FFFFD6"/>
<path fill-rule="evenodd" clip-rule="evenodd" d="M7322.98 9584.93L6603.53 1876.53L7882.7 1757.14L8602.15 9465.54L7322.98 9584.93Z" fill="white"/>
<path d="M30582.2 5152.34C30582.2 6735.38 30349.1 7980.77 29882.9 8888.49C29416.8 9796.22 28778 10250.1 27966.4 10250.1C27152.5 10250.1 26513.6 9791.84 26049.9 8875.34C25586.1 7954.46 25354.3 6713.46 25354.3 5152.34C25354.3 3578.07 25586.1 2334.88 26049.9 1422.76C26513.6 506.267 27152.5 48.0183 27966.4 48.0183C28778 48.0183 30480.8 -254.231 30946.9 657.882C31413.1 1565.61 30582.2 3569.3 30582.2 5152.34ZM29183.7 5145.76C29183.7 4562.54 29149.9 4067.01 29082.3 3659.19C29017.1 3246.99 28928.9 2909.33 28817.8 2646.22C28701.9 2378.73 28570.2 2187.97 28422.9 2073.96C28278 1955.56 28127 1896.36 27970 1896.36C27803.4 1896.36 27652.4 1951.18 27517.2 2060.81C27381.9 2166.05 27251.5 2356.8 27125.9 2633.07C27014.8 2887.41 26924.2 3225.06 26854.2 3646.04C26786.5 4067.01 26752.7 4569.11 26752.7 5152.34C26752.7 5753.11 26785.3 6253.01 26850.5 6652.06C26915.8 7046.73 27005.1 7377.81 27118.6 7645.3C27234.6 7917.18 27366.2 8112.32 27513.5 8230.72C27660.9 8344.74 27813 8401.74 27970 8401.74C28129.4 8401.74 28284 8340.35 28433.8 8217.57C28583.5 8090.4 28712.7 7895.26 28821.4 7632.15C28937.4 7347.11 29026.7 7016.03 29089.5 6638.91C29152.3 6257.4 29183.7 5759.68 29183.7 5145.76Z" fill="white" fill-opacity="0.3"/>
<path d="M18423 11152.3H17379.2L15714.7 3826.3V11152.3H14723V643.214H16054L17431.3 6663.54V643.214H18423V11152.3Z" fill="white"/>
<path d="M26838.1 5958.71L4444.97 10681.8V4499.19L3396.59 8489.38H2410.11L1361.73 4499.19V10681.8H0V1354.64H1667.35L2943.97 5958.71L4216.73 1354.64L32542.3 6365.1L26838.1 5958.71Z" fill="#1B1425" fill-opacity="0.76"/>
<g filter="url(#filter0_f_7_1734)">
<path d="M18911.3 9110.14V1413.98H21491.5V2881.89H19864.4V4230.91H21363.3V5698.82H19864.4V7642.24H21491.5V9110.14H18911.3Z" fill="white" fill-opacity="0.84"/>
</g>
<g filter="url(#filter1_f_7_1734)">
<path d="M18911.3 9110.14V1413.98H21491.5V2881.89H19864.4V4230.91H21363.3V5698.82H19864.4V7642.24H21491.5V9110.14H18911.3Z" fill="white" fill-opacity="0.84"/>
</g>
<g filter="url(#filter2_f_7_1734)">
<path d="M18919.8 9626.49V1930.33H21500V3398.23H19872.9V4747.26H21371.9V6215.16H19872.9V8158.58H21500V9626.49H18919.8Z" fill="white" fill-opacity="0.51"/>
</g>
<path d="M12974.9 10947.3L11986.4 11855L9937.97 4535.2V11855H8717.48L9283.01 1813.94L10355.5 1354.81L12050.6 7370.05V1354.81H13271.1L12974.9 10947.3Z" fill="white" fill-opacity="0.75"/>
<path d="M18429.6 11740.4H17385.7L15721.2 4414.4V11740.4H14729.5V1231.32H16060.5L17437.9 7251.65V1231.32H18429.6V11740.4Z" fill="white" fill-opacity="0.46"/>
<path d="M18783.2 12147.1H17739.3L16074.8 4821.11V12147.1H15083.1V1638.02H16414.1L17791.5 7658.36V1638.02H18783.2V12147.1Z" fill="white" fill-opacity="0.52"/>
<g filter="url(#filter3_d_7_1734)">
<path fill-rule="evenodd" clip-rule="evenodd" d="M7322.98 9019.65L6603.53 1311.25L7882.7 1191.86L8602.15 8900.26L7322.98 9019.65Z" fill="white"/>
</g>
<defs>
<filter id="filter0_f_7_1734" x="18907.7" y="1410.43" width="2587.31" height="7703.26" filterUnits="userSpaceOnUse" color-interpolation-filters="sRGB">
<feFlood flood-opacity="0" result="BackgroundImageFix"/>
<feBlend mode="normal" in="SourceGraphic" in2="BackgroundImageFix" result="shape"/>
<feGaussianBlur stdDeviation="2" result="effect1_foregroundBlur_7_1734"/>
</filter>
<filter id="filter1_f_7_1734" x="18907.7" y="1410.43" width="2587.31" height="7703.26" filterUnits="userSpaceOnUse" color-interpolation-filters="sRGB">
<feFlood flood-opacity="0" result="BackgroundImageFix"/>
<feBlend mode="normal" in="SourceGraphic" in2="BackgroundImageFix" result="shape"/>
<feGaussianBlur stdDeviation="2" result="effect1_foregroundBlur_7_1734"/>
</filter>
<filter id="filter2_f_7_1734" x="18916.2" y="1926.78" width="2587.31" height="7703.26" filterUnits="userSpaceOnUse" color-interpolation-filters="sRGB">
<feFlood flood-opacity="0" result="BackgroundImageFix"/>
<feBlend mode="normal" in="SourceGraphic" in2="BackgroundImageFix" result="shape"/>
<feGaussianBlur stdDeviation="2" result="effect1_foregroundBlur_7_1734"/>
</filter>
<filter id="filter3_d_7_1734" x="6599.98" y="1191.86" width="2005.73" height="7834.89" filterUnits="userSpaceOnUse" color-interpolation-filters="sRGB">
<feFlood flood-opacity="0" result="BackgroundImageFix"/>
<feColorMatrix in="SourceAlpha" type="matrix" values="0 0 0 0 0 0 0 0 0 0 0 0 0 0 0 0 0 0 127 0" result="hardAlpha"/>
<feOffset dy="4"/>
<feGaussianBlur stdDeviation="2"/>
<feComposite in2="hardAlpha" operator="out"/>
<feColorMatrix type="matrix" values="0 0 0 0 0 0 0 0 0 0 0 0 0 0 0 0 0 0 0.25 0"/>
<feBlend mode="normal" in2="BackgroundImageFix" result="effect1_dropShadow_7_1734"/>
<feBlend mode="normal" in="SourceGraphic" in2="effect1_dropShadow_7_1734" result="shape"/>
</filter>
</defs>
</svg>
